<?xml version="1.0" encoding="UTF-8" standalone="no"?>
<!-- Created with Inkscape (http://www.inkscape.org/) -->

<svg
   xmlns:dc="http://purl.org/dc/elements/1.1/"
   xmlns:cc="http://creativecommons.org/ns#"
   xmlns:rdf="http://www.w3.org/1999/02/22-rdf-syntax-ns#"
   xmlns:svg="http://www.w3.org/2000/svg"
   xmlns="http://www.w3.org/2000/svg"
   xmlns:sodipodi="http://sodipodi.sourceforge.net/DTD/sodipodi-0.dtd"
   xmlns:inkscape="http://www.inkscape.org/namespaces/inkscape"
   width="340"
   height="60"
   viewBox="0 0 340.00001 60.000003"
   id="svg2"
   version="1.1"
   inkscape:version="0.91 r13725"
   sodipodi:docname="logo.svg">
  <defs
     id="defs4" />
  <sodipodi:namedview
     id="base"
     pagecolor="#ffffff"
     bordercolor="#666666"
     borderopacity="1.0"
     inkscape:pageopacity="0.0"
     inkscape:pageshadow="2"
     inkscape:zoom="2.8"
     inkscape:cx="75.617169"
     inkscape:cy="-52.970245"
     inkscape:document-units="px"
     inkscape:current-layer="layer1"
     showgrid="false"
     inkscape:window-width="1920"
     inkscape:window-height="1019"
     inkscape:window-x="0"
     inkscape:window-y="27"
     inkscape:window-maximized="1"
     units="px" />
  <metadata
     id="metadata7">
    <rdf:RDF>
      <cc:Work
         rdf:about="">
        <dc:format>image/svg+xml</dc:format>
        <dc:type
           rdf:resource="http://purl.org/dc/dcmitype/StillImage" />
        <dc:title />
      </cc:Work>
    </rdf:RDF>
  </metadata>
  <g
     inkscape:label="Layer 1"
     inkscape:groupmode="layer"
     id="layer1"
     transform="translate(0,-992.3622)">
    <g
       transform="matrix(0.37064015,0,0,0.41694838,-6.3129553,951.91512)"
       style="font-style:normal;font-weight:normal;font-size:40px;line-height:125%;font-family:sans-serif;letter-spacing:0px;word-spacing:0px;fill:#000000;fill-opacity:1;stroke:none;stroke-width:1px;stroke-linecap:butt;stroke-linejoin:miter;stroke-opacity:1"
       id="flowRoot4136">
      <path
         d="m 49.498047,173.52965 -3.999024,13.94532 8.049317,0 -0.871582,3.22998 -7.998047,0 -8.818359,30.24902 q -1.435547,4.87061 -1.435547,6.30615 0,0.87159 0.410156,1.33301 0.410156,0.46143 0.974121,0.46143 1.281738,0 3.383789,-1.79444 1.230469,-1.02539 5.48584,-6.30615 l 1.691894,1.28174 q -4.716796,6.87012 -8.920898,9.68994 -2.871094,1.94824 -5.793457,1.94824 -2.255859,0 -3.691406,-1.38427 -1.435547,-1.43555 -1.435547,-3.64014 0,-2.76856 1.640625,-8.45947 l 8.562012,-29.68506 -7.7417,0 0.512696,-1.99951 q 5.639648,-1.53809 9.382324,-4.56299 3.742676,-3.07617 8.356933,-10.6128 l 2.25586,0 z"
         style="font-style:italic;font-variant:normal;font-weight:normal;font-stretch:normal;font-size:105px;font-family:serif;-inkscape-font-specification:'serif Italic'"
         id="path4144" />
      <path
         d="M 82.156738,159.73815 67.75,209.52087 q 9.331055,-14.04786 14.560547,-18.66211 5.229492,-4.61426 9.997558,-4.61426 2.460938,0 4.101563,1.69189 1.640625,1.6919 1.640625,4.51172 0,3.38379 -1.435547,8.20313 l -6.254883,21.48193 q -1.179199,3.89648 -1.179199,4.30664 0,0.71777 0.410156,1.1792 0.461426,0.46143 1.025391,0.46143 0.666504,0 1.538086,-0.66651 2.922363,-2.25586 5.793457,-6.25488 l 1.589355,0.97412 q -1.743164,2.71729 -4.870605,5.99854 -3.076172,3.22998 -5.332031,4.51171 -2.20459,1.23047 -3.947754,1.23047 -1.896973,0 -3.127442,-1.23047 -1.179199,-1.1792 -1.179199,-3.07617 0,-2.25586 1.794434,-8.4082 l 5.895996,-20.50781 q 1.127929,-3.84522 1.127929,-6.04981 0,-1.02539 -0.666503,-1.64062 -0.615235,-0.61524 -1.640625,-0.61524 -1.486817,0 -3.383789,1.12793 -3.486329,2.15332 -8.049317,7.99805 -1.230469,1.58935 -8.203125,12.81738 -2.15332,3.58887 -3.537598,7.84424 l -3.28125,10.51025 -7.690429,0 16.867676,-58.65234 1.794433,-6.35742 q 0,-1.33301 -1.12793,-2.3584 -1.07666,-1.02539 -2.666015,-1.02539 -0.922852,0 -2.819824,0.30762 l -1.076661,0.15381 0,-1.99952 17.739258,-2.97363 z"
         style="font-style:italic;font-variant:normal;font-weight:normal;font-stretch:normal;font-size:105px;font-family:serif;-inkscape-font-specification:'serif Italic'"
         id="path4146" />
      <path
         d="m 116.35352,213.31481 q -0.35889,2.56348 -0.35889,4.25537 0,4.56299 3.22998,7.79297 3.22998,3.17871 7.84424,3.17871 3.6914,0 7.07519,-1.48681 3.43506,-1.53809 10.15137,-6.71631 l 1.07666,1.48681 q -12.15088,12.04834 -23.17383,12.04834 -7.48535,0 -11.27929,-4.71679 -3.79395,-4.7168 -3.79395,-10.40772 0,-7.63916 4.7168,-15.63721 4.71679,-7.99804 11.84326,-12.40722 7.12646,-4.46045 14.66308,-4.46045 5.43457,0 8.04932,2.20459 2.61475,2.20459 2.61475,5.22949 0,4.25537 -3.38379,8.15186 -4.46045,5.07568 -13.125,8.20312 -5.74219,2.10205 -16.1499,3.28125 z m 0.35888,-2.51221 q 7.58789,-0.87158 12.35596,-2.97363 6.30615,-2.81982 9.43359,-6.71631 3.17871,-3.94775 3.17871,-7.48535 0,-2.15332 -1.38427,-3.48633 -1.33301,-1.33301 -3.84522,-1.33301 -5.22949,0 -11.12549,5.58838 -5.84472,5.53711 -8.61328,16.40625 z"
         style="font-style:italic;font-variant:normal;font-weight:normal;font-stretch:normal;font-size:105px;font-family:serif;-inkscape-font-specification:'serif Italic'"
         id="path4148" />
    </g>
    <g
       transform="matrix(0.29423058,0,0,0.3221853,-9.7105067,974.27247)"
       style="font-style:normal;font-weight:normal;font-size:50px;line-height:125%;font-family:sans-serif;letter-spacing:0px;word-spacing:0px;fill:#000000;fill-opacity:1;stroke:none;stroke-width:1px;stroke-linecap:butt;stroke-linejoin:miter;stroke-opacity:1"
       id="flowRoot4152">
      <path
         d="m 234.98926,65.455096 43.5791,0 q 20.64819,0 31.23169,3.216553 10.68725,3.216553 17.22412,13.073731 6.53687,9.753417 6.53687,31.54297 0,14.73388 -4.66919,20.54443 -4.56543,5.81055 -18.15796,8.92334 15.14892,3.42407 20.54443,11.41358 5.39551,7.88574 5.39551,24.27978 l 0,15.56397 q 0,17.0166 -3.94287,25.21362 -3.83911,8.19702 -12.34742,11.20605 -8.5083,3.00904 -34.86328,3.00904 l -50.531,0 0,-167.987064 z m 43.68286,28.741455 0,37.353519 q 2.80151,-0.10376 4.35791,-0.10376 6.4331,0 8.19702,-3.1128 1.76392,-3.21655 1.76392,-18.15795 0,-7.88575 -1.45264,-10.99854 -1.45264,-3.216553 -3.83911,-4.046631 -2.28272,-0.830078 -9.0271,-0.933838 z m 0,63.500979 0,47.00317 q 9.23462,-0.31128 11.72485,-2.90527 2.594,-2.594 2.594,-12.76245 l 0,-15.66773 q 0,-10.79101 -2.28272,-13.07373 -2.28271,-2.28271 -12.03613,-2.59399 z"
         style="font-style:normal;font-variant:normal;font-weight:normal;font-stretch:condensed;font-size:212.5px;font-family:impact;-inkscape-font-specification:'impact Condensed'"
         id="path4151" />
      <path
         d="m 352.44531,65.455096 72.83936,0 0,33.618164 -29.1565,0 0,31.85425 27.28882,0 0,31.95801 -27.28882,0 0,36.93847 32.06177,0 0,33.61817 -75.74463,0 0,-167.987064 z"
         style="font-style:normal;font-variant:normal;font-weight:normal;font-stretch:condensed;font-size:212.5px;font-family:impact;-inkscape-font-specification:'impact Condensed'"
         id="path4153" />
      <path
         d="m 440.84863,65.455096 72.83936,0 0,33.618164 -29.1565,0 0,31.85425 27.28882,0 0,31.95801 -27.28882,0 0,36.93847 32.06177,0 0,33.61817 -75.74463,0 0,-167.987064 z"
         style="font-style:normal;font-variant:normal;font-weight:normal;font-stretch:condensed;font-size:212.5px;font-family:impact;-inkscape-font-specification:'impact Condensed'"
         id="path4155" />
      <path
         d="m 529.25195,65.455096 30.92041,0 q 30.92041,0 41.81519,2.386475 10.99853,2.386475 17.84668,12.243652 6.9519,9.753418 6.9519,31.231687 0,19.6106 -4.87671,26.35498 -4.87671,6.74439 -19.19555,8.09326 12.96997,3.21656 17.43164,8.61207 4.46167,5.3955 5.49927,9.96093 1.14135,4.46167 1.14135,24.79859 l 0,44.30542 -40.57007,0 0,-55.82276 q 0,-13.48877 -2.17895,-16.70532 -2.0752,-3.21655 -11.1023,-3.21655 l 0,75.74463 -43.68286,0 0,-167.987064 z m 43.68286,28.741455 0,37.353519 q 7.36695,0 10.27222,-1.97144 3.00903,-2.07519 3.00903,-13.17749 l 0,-9.23462 q 0,-7.9895 -2.90527,-10.479734 -2.80151,-2.490235 -10.37598,-2.490235 z"
         style="font-style:normal;font-variant:normal;font-weight:normal;font-stretch:condensed;font-size:212.5px;font-family:impact;-inkscape-font-specification:'impact Condensed'"
         id="path4157" />
      <path
         d="m 744.24219,65.455096 0,167.987064 -43.68286,0 0,-70.55664 -13.07373,0 0,70.55664 -43.68287,0 0,-167.987064 43.68287,0 0,60.076904 13.07373,0 0,-60.076904 43.68286,0 z"
         style="font-style:normal;font-variant:normal;font-weight:normal;font-stretch:condensed;font-size:212.5px;font-family:impact;-inkscape-font-specification:'impact Condensed'"
         id="path4159" />
      <path
         d="m 861.49072,163.81935 q 0,25.31739 -1.24511,35.90088 -1.14136,10.47974 -7.47071,19.19556 -6.22558,8.71582 -16.91284,13.38501 -10.68726,4.66919 -24.90234,4.66919 -13.48877,0 -24.27979,-4.35791 -10.68725,-4.46167 -17.22412,-13.28125 -6.53686,-8.81958 -7.78198,-19.19556 -1.24512,-10.37597 -1.24512,-36.31592 l 0,-28.74145 q 0,-25.31738 1.14136,-35.79712 1.24512,-10.583496 7.4707,-19.299317 6.32935,-8.71582 17.0166,-13.385009 10.68726,-4.66919 24.90235,-4.66919 13.48877,0 24.17602,4.46167 10.79102,4.35791 17.32788,13.17749 6.53687,8.819581 7.78199,19.195557 1.24511,10.375979 1.24511,36.315919 l 0,28.74145 z m -43.68286,-55.20019 q 0,-11.724855 -1.34888,-14.941407 -1.24511,-3.320313 -5.29174,-3.320313 -3.42408,0 -5.29175,2.697754 -1.76392,2.593994 -1.76392,15.563966 l 0,78.44238 q 0,14.63013 1.14136,18.0542 1.24512,3.42407 5.60303,3.42407 4.46167,0 5.70678,-3.94287 1.24512,-3.94287 1.24512,-18.78052 l 0,-77.19726 z"
         style="font-style:normal;font-variant:normal;font-weight:normal;font-stretch:condensed;font-size:212.5px;font-family:impact;-inkscape-font-specification:'impact Condensed'"
         id="path4161" />
      <path
         d="m 977.18286,65.455096 0,112.268064 q 0,19.0918 -1.24512,26.87378 -1.24511,7.67822 -7.36694,15.87525 -6.12183,8.09326 -16.18652,12.34741 -9.96094,4.15039 -23.55347,4.15039 -15.04517,0 -26.5625,-4.98047 -11.51733,-4.98047 -17.22412,-12.96997 -5.70679,-7.9895 -6.74439,-16.80908 -1.03759,-8.92334 -1.03759,-37.35352 l 0,-99.401854 43.68286,0 0,125.964354 q 0,10.99854 1.14136,14.11133 1.24511,3.00903 4.8767,3.00903 4.1504,0 5.29175,-3.32031 1.24512,-3.42407 1.24512,-15.979 l 0,-123.785404 43.68286,0 z"
         style="font-style:normal;font-variant:normal;font-weight:normal;font-stretch:condensed;font-size:212.5px;font-family:impact;-inkscape-font-specification:'impact Condensed'"
         id="path4163" />
      <path
         d="m 1086.6494,116.29738 -40.5701,0 0,-12.45117 q 0,-8.715821 -1.5564,-11.102295 -1.5563,-2.386475 -5.1879,-2.386475 -3.9429,0 -6.0181,3.216553 -1.9714,3.216553 -1.9714,9.753417 0,8.40454 2.2827,12.65869 2.1789,4.25415 12.3474,10.27222 29.1565,17.32788 36.7309,28.43017 7.5745,11.1023 7.5745,35.79712 0,17.95044 -4.2541,26.45874 -4.1504,8.5083 -16.1866,14.31885 -12.0361,5.70679 -28.0151,5.70679 -17.5354,0 -29.9866,-6.64063 -12.34739,-6.64062 -16.1865,-16.91284 -3.83911,-10.27221 -3.83911,-29.15649 l 0,-10.99854 40.57011,0 0,20.44068 q 0,9.44214 1.6601,12.13989 1.7639,2.69775 6.1218,2.69775 4.3579,0 6.4331,-3.42407 2.179,-3.42407 2.179,-10.16846 0,-14.83764 -4.0466,-19.40307 -4.1504,-4.56543 -20.4407,-15.25269 -16.2903,-10.79101 -21.582,-15.66772 -5.29178,-4.87671 -8.81962,-13.48877 -3.42407,-8.61206 -3.42407,-21.99707 0,-19.299319 4.87671,-28.222659 4.98048,-8.923339 15.97898,-13.903808 10.9986,-5.084229 26.5625,-5.084229 17.0166,0 28.949,5.499268 12.0361,5.499267 15.8752,13.903808 3.9429,8.300782 3.9429,28.32642 l 0,6.64062 z"
         style="font-style:normal;font-variant:normal;font-weight:normal;font-stretch:condensed;font-size:212.5px;font-family:impact;-inkscape-font-specification:'impact Condensed'"
         id="path4165" />
      <path
         d="m 1104.0811,65.455096 72.8393,0 0,33.618164 -29.1565,0 0,31.85425 27.2888,0 0,31.95801 -27.2888,0 0,36.93847 32.0618,0 0,33.61817 -75.7446,0 0,-167.987064 z"
         style="font-style:normal;font-variant:normal;font-weight:normal;font-stretch:condensed;font-size:212.5px;font-family:impact;-inkscape-font-specification:'impact Condensed'"
         id="path4167" />
    </g>
    <text
       xml:space="preserve"
       style="font-style:normal;font-weight:normal;font-size:40px;line-height:125%;font-family:sans-serif;letter-spacing:0px;word-spacing:0px;fill:#000000;fill-opacity:1;stroke:none;stroke-width:1px;stroke-linecap:butt;stroke-linejoin:miter;stroke-opacity:1"
       x="1063.6906"
       y="858.4129"
       id="text4160"
       sodipodi:linespacing="125%"><tspan
         sodipodi:role="line"
         id="tspan4162"
         x="1063.6906"
         y="858.4129" /></text>
  </g>
</svg>
